<?xml version="1.0" standalone="no"?>
<!DOCTYPE svg PUBLIC "-//W3C//DTD SVG 1.1//EN" "http://www.w3.org/Graphics/SVG/1.1/DTD/svg11.dtd">
<svg xmlns="http://www.w3.org/2000/svg" id="Layer_1" viewBox="0 0 1920 1080" width="1920" height="1080"><defs><style>.cls-1{fill:none;stroke:#f2f3f6;}</style></defs><path class="cls-1" d="M6.5184,539.995C6.5184,235.5414,228.6816,5.1421,533.1452,5.1421c290.0505,0,347.6528,168.6889,427.8843,168.6889,78.1624,0,135.7647-168.6889,427.8843-168.6889,302.3946,0,524.5678,230.3992,524.5678,534.8529s-222.1732,534.8629-524.5678,534.8629c-292.1196,0-349.7219-168.6889-427.8843-168.6889-80.2314,0-137.8338,168.6889-427.8843,168.6889C228.6816,1074.8579,6.5184,844.4486,6.5184,539.995ZM1388.0564,1067.8293c298.052,0,517.4251-227.2663,517.4251-527.8343S1686.1084,12.1707,1388.0564,12.1707c-289.8337,0-346.9216,169.6601-427.0269,169.6601-82.1744,0-139.2622-169.6601-427.0272-169.6601C233.8816,12.1707,14.5754,239.427,14.5754,539.995s219.3062,527.8343,519.4269,527.8343c287.765,0,344.8528-169.6604,427.0272-169.6604,80.1053,0,137.1932,169.6604,427.0269,169.6604ZM1387.1991,1060.8007c293.7093,0,510.2824-224.1234,510.2824-520.8058S1680.9084,19.1993,1387.1991,19.1993c-287.5479,0-344.1213,170.6313-426.1696,170.6313-84.1174,0-140.6907-170.6313-426.1701-170.6313C239.0816,19.1993,22.6323,243.3126,22.6323,539.995s216.4492,520.8058,512.2271,520.8058c285.4794,0,342.0528-170.6319,426.1701-170.6319,82.0483,0,138.6217,170.6319,426.1696,170.6319ZM1386.3417,1053.7722c289.3667,0,503.1398-220.9805,503.1398-513.7772S1675.7084,26.2278,1386.3417,26.2278c-285.2621,0-341.3209,171.6025-425.3122,171.6025-86.0603,0-142.1192-171.6025-425.313-171.6025C244.2816,26.2278,30.6893,247.1983,30.6893,539.995s213.5923,513.7772,505.0272,513.7772c283.1938,0,339.2527-171.6034,425.313-171.6034,83.9912,0,140.0501,171.6034,425.3122,171.6034ZM1385.4843,1046.7436c285.0241,0,495.9971-217.8375,495.9971-506.7486S1670.5084,33.2564,1385.4843,33.2564c-282.9762,0-338.5206,172.5737-424.4548,172.5737-88.0033,0-143.5477-172.5737-424.4559-172.5737-287.092,0-497.8273,217.8275-497.8273,506.7386s210.7353,506.7486,497.8273,506.7486c280.9083,0,336.4527-172.5748,424.4559-172.5748,85.9342,0,141.4786,172.5748,424.4548,172.5748ZM1384.627,1039.715c280.6814,0,488.8544-214.6946,488.8544-499.7201S1665.3084,40.285,1384.627,40.285s-335.7203,173.5449-423.5975,173.5449c-89.9462,0-144.9762-173.5449-423.5989-173.5449-282.7491,0-490.6275,214.6846-490.6275,499.71s207.8784,499.7201,490.6275,499.7201c278.6227,0,333.6526-173.5463,423.5989-173.5463,87.8772,0,142.9071,173.5463,423.5975,173.5463ZM1383.7696,1032.6865c276.3388,0,481.7117-211.5517,481.7117-492.6915S1660.1084,47.3135,1383.7696,47.3135c-278.4045,0-332.92,174.5161-422.7401,174.5161-91.8892,0-146.4046-174.5161-422.7418-174.5161-278.4062,0-483.4276,211.5416-483.4276,492.6815s205.0214,492.6915,483.4276,492.6915c276.3371,0,330.8526-174.5178,422.7418-174.5178,89.8201,0,144.3356,174.5178,422.7401,174.5178ZM1382.9122,1025.6579c271.9962,0,474.5691-208.4087,474.5691-485.6629S1654.9084,54.3421,1382.9122,54.3421c-276.1187,0-330.1197,175.4873-421.8827,175.4873-93.8321,0-147.8331-175.4873-421.8847-175.4873S62.9171,262.7408,62.9171,539.995s202.1644,485.6629,476.2277,485.6629,328.0525-175.4893,421.8847-175.4893c91.7631,0,145.7641,175.4893,421.8827,175.4893ZM1382.0549,1018.6294c267.6535,0,467.4264-205.2658,467.4264-478.6344S1649.7084,61.3706,1382.0549,61.3706c-273.8328,0-327.3193,176.4585-421.0254,176.4585-95.7751,0-149.2616-176.4585-421.0276-176.4585-269.7204,0-469.0278,205.2558-469.0278,478.6243s199.3075,478.6344,469.0278,478.6344c271.766,0,325.2525-176.4607,421.0276-176.4607,93.706,0,147.1925,176.4607,421.0254,176.4607ZM1381.1975,1011.6008c263.3109,0,460.2837-202.1229,460.2837-471.6058s-196.9728-471.5958-460.2837-471.5958c-271.547,0-324.519,177.4297-420.168,177.4297-97.718,0-150.6901-177.4297-420.1705-177.4297-265.3775,0-461.828,202.1128-461.828,471.5958s196.4505,471.6058,461.828,471.6058c269.4804,0,322.4525-177.4322,420.1705-177.4322,95.649,0,148.621,177.4322,420.168,177.4322ZM1380.3401,1004.5722c258.9683,0,453.141-198.9799,453.141-464.5772s-194.1728-464.5672-453.141-464.5672c-269.2611,0-321.7187,178.4009-419.3106,178.4009-99.661,0-152.1186-178.4009-419.3134-178.4009-261.0345,0-454.6281,198.9699-454.6281,464.5672s193.5936,464.5772,454.6281,464.5772c267.1949,0,319.6524-178.4037,419.3134-178.4037,97.5919,0,150.0495,178.4037,419.3106,178.4037ZM1379.4828,997.5437c254.6256,0,445.9984-195.837,445.9984-457.5487s-191.3727-457.5386-445.9984-457.5386c-266.9753,0-318.9184,179.3721-418.4533,179.3721-101.604,0-153.547-179.3721-418.4563-179.3721-256.6916,0-447.4282,195.827-447.4282,457.5386s190.7366,457.5487,447.4282,457.5487c264.9093,0,316.8524-179.3752,418.4563-179.3752,99.5349,0,151.478,179.3752,418.4533,179.3752ZM1378.6254,990.5151c250.283,0,438.8557-192.6941,438.8557-450.5201s-188.5727-450.5101-438.8557-450.5101c-264.6894,0-316.118,180.3433-417.5959,180.3433-103.5469,0-154.9755-180.3433-417.5992-180.3433-252.3487,0-440.2284,192.684-440.2284,450.5101s187.8796,450.5201,440.2284,450.5201c262.6237,0,314.0523-180.3467,417.5992-180.3467,101.4778,0,152.9065,180.3467,417.5959,180.3467ZM1377.768,983.4865c245.9404,0,431.713-189.5511,431.713-443.4915s-185.7726-443.4815-431.713-443.4815c-262.4036,0-313.3177,181.3145-416.7385,181.3145-105.4899,0-156.404-181.3145-416.7422-181.3145-248.0058,0-433.0285,189.5411-433.0285,443.4815s185.0227,443.4915,433.0285,443.4915c260.3382,0,311.2523-181.3181,416.7422-181.3181,103.4208,0,154.3349,181.3181,416.7385,181.3181ZM1376.9107,976.458c241.5977,0,424.5703-186.4082,424.5703-436.463s-182.9726-436.4529-424.5703-436.4529c-260.1177,0-310.5174,182.2857-415.8812,182.2857-107.4328,0-157.8325-182.2857-415.8851-182.2857-243.6629,0-425.8286,186.3982-425.8286,436.4529s182.1657,436.463,425.8286,436.463c258.0526,0,308.4522-182.2896,415.8851-182.2896,105.3638,0,155.7634,182.2896,415.8812,182.2896ZM1376.0533,969.4294c237.2551,0,417.4277-183.2653,417.4277-429.4344s-180.1726-429.4244-417.4277-429.4244c-257.8319,0-307.7171,183.2569-415.0238,183.2569-109.3758,0-159.261-183.2569-415.028-183.2569-239.32,0-418.6287,183.2552-418.6287,429.4244s179.3088,429.4344,418.6287,429.4344c255.767,0,305.6522-183.2611,415.028-183.2611,107.3067,0,157.1919,183.2611,415.0238,183.2611ZM1375.1959,962.4008c232.9125,0,410.285-180.1223,410.285-422.4058s-177.3725-422.3958-410.285-422.3958c-255.5461,0-304.9168,184.2281-414.1664,184.2281-111.3187,0-160.6894-184.2281-414.1709-184.2281-234.9771,0-411.4289,180.1123-411.4289,422.3958s176.4518,422.4058,411.4289,422.4058c253.4815,0,302.8522-184.2326,414.1709-184.2326,109.2497,0,158.6204,184.2326,414.1664,184.2326ZM1374.3386,955.3723c228.5698,0,403.1423-176.9794,403.1423-415.3773s-174.5725-415.3672-403.1423-415.3672c-253.2602,0-302.1164,185.1993-413.3091,185.1993-113.2617,0-162.1179-185.1993-413.3138-185.1993-230.6342,0-404.229,176.9694-404.229,415.3672s173.5949,415.3773,404.229,415.3773c251.1959,0,300.0521-185.204,413.3138-185.204,111.1926,0,160.0489,185.204,413.3091,185.204ZM1373.4812,948.3437c224.2272,0,395.9996-173.8365,395.9996-408.3487s-171.7724-408.3387-395.9996-408.3387c-250.9744,0-299.3161,186.1705-412.4517,186.1705-115.2046,0-163.5464-186.1705-412.4567-186.1705-226.2912,0-397.0291,173.8264-397.0291,408.3387s170.7379,408.3487,397.0291,408.3487c248.9103,0,297.2521-186.1755,412.4567-186.1755,113.1356,0,161.4773,186.1755,412.4517,186.1755ZM1372.6238,941.3151c219.8846,0,388.8569-170.6935,388.8569-401.3202s-168.9724-401.3101-388.8569-401.3101c-248.6885,0-296.5158,187.1417-411.5943,187.1417-117.1476,0-164.9749-187.1417-411.5996-187.1417-221.9483,0-389.8293,170.6835-389.8293,401.3101s167.8809,401.3202,389.8293,401.3202c246.6248,0,294.452-187.147,411.5996-187.147,115.0785,0,162.9058,187.147,411.5943,187.147ZM1371.7665,934.2866c215.5419,0,381.7143-167.5506,381.7143-394.2916s-166.1723-394.2815-381.7143-394.2815c-246.4027,0-293.7155,188.1129-410.737,188.1129-119.0905,0-166.4034-188.1129-410.7425-188.1129-217.6054,0-382.6294,167.5406-382.6294,394.2815s165.024,394.2916,382.6294,394.2916c244.3392,0,291.652-188.1185,410.7425-188.1185,117.0215,0,164.3343,188.1185,410.737,188.1185ZM1370.9091,927.258c211.1993,0,374.5716-164.4077,374.5716-387.263s-163.3723-387.253-374.5716-387.253c-244.1168,0-290.9151,189.0841-409.8796,189.0841-121.0335,0-167.8318-189.0841-409.8854-189.0841-213.2625,0-375.4295,164.3976-375.4295,387.253s162.167,387.263,375.4295,387.263c242.0536,0,288.8519-189.09,409.8854-189.09,118.9644,0,165.7628,189.09,409.8796,189.09ZM1370.0517,920.2294c206.8567,0,367.4289-161.2647,367.4289-380.2345s-160.5723-380.2244-367.4289-380.2244c-241.831,0-288.1148,190.0553-409.0222,190.0553-122.9765,0-169.2603-190.0553-409.0284-190.0553-208.9196,0-368.2296,161.2547-368.2296,380.2244s159.3101,380.2345,368.2296,380.2345c239.7681,0,286.0519-190.0614,409.0284-190.0614,120.9074,0,167.1912,190.0614,409.0222,190.0614ZM1369.1944,913.2009c202.514,0,360.2862-158.1218,360.2862-373.2059s-157.7722-373.1958-360.2862-373.1958c-239.5451,0-285.3145,191.0265-408.1649,191.0265-124.9194,0-170.6888-191.0265-408.1713-191.0265-204.5767,0-361.0298,158.1118-361.0298,373.1958s156.4531,373.2059,361.0298,373.2059c237.4825,0,283.2519-191.0329,408.1713-191.0329,122.8504,0,168.6197,191.0329,408.1649,191.0329ZM1368.337,906.1723c198.1714,0,353.1436-154.9789,353.1436-366.1773s-154.9722-366.1673-353.1436-366.1673c-237.2593,0-282.5142,191.9977-407.3075,191.9977-126.8624,0-172.1173-191.9977-407.3142-191.9977-200.2338,0-353.8299,154.9688-353.8299,366.1673s153.5961,366.1773,353.8299,366.1773c235.1969,0,280.4518-192.0044,407.3142-192.0044,124.7933,0,170.0482,192.0044,407.3075,192.0044ZM1367.4796,899.1437c193.8288,0,346.0009-151.8359,346.0009-359.1488s-152.1721-359.1387-346.0009-359.1387c-234.9734,0-279.7139,192.9689-406.4501,192.9689-128.8053,0-173.5457-192.9689-406.4571-192.9689-195.8909,0-346.63,151.8259-346.63,359.1387s150.7392,359.1488,346.63,359.1488c232.9113,0,277.6518-192.9759,406.4571-192.9759,126.7363,0,171.4767,192.9759,406.4501,192.9759ZM1366.6223,892.1152c189.4861,0,338.8582-148.693,338.8582-352.1202s-149.3721-352.1101-338.8582-352.1101c-232.6876,0-276.9135,193.9401-405.5928,193.9401-130.7483,0-174.9742-193.9401-405.6-193.9401-191.5479,0-339.4302,148.683-339.4302,352.1101s147.8822,352.1202,339.4302,352.1202c230.6258,0,274.8517-193.9473,405.6-193.9473,128.6792,0,172.9052,193.9473,405.5928,193.9473ZM1365.7649,885.0866c185.1435,0,331.7155-145.5501,331.7155-345.0916s-146.572-345.0816-331.7155-345.0816c-230.4017,0-274.1132,194.9113-404.7354,194.9113-132.6912,0-176.4027-194.9113-404.7429-194.9113-187.205,0-332.2303,145.54-332.2303,345.0816s145.0253,345.0916,332.2303,345.0916c228.3402,0,272.0517-194.9188,404.7429-194.9188,130.6222,0,174.3336,194.9188,404.7354,194.9188ZM1364.9075,878.058c180.8009,0,324.5729-142.4071,324.5729-338.0631s-143.772-338.053-324.5729-338.053c-228.1159,0-271.3129,195.8825-403.878,195.8825-134.6342,0-177.8312-195.8825-403.8858-195.8825-182.8621,0-325.0304,142.3971-325.0304,338.053s142.1683,338.0631,325.0304,338.0631c226.0546,0,269.2516-195.8903,403.8858-195.8903,132.5651,0,175.7621,195.8903,403.878,195.8903ZM1364.0502,871.0295c176.4582,0,317.4302-139.2642,317.4302-331.0345s-140.972-331.0245-317.4302-331.0245c-225.8301,0-268.5126,196.8537-403.0207,196.8537-136.5771,0-179.2597-196.8537-403.0287-196.8537-178.5192,0-317.8305,139.2542-317.8305,331.0245s139.3113,331.0345,317.8305,331.0345c223.7691,0,266.4516-196.8618,403.0287-196.8618,134.5081,0,177.1906,196.8618,403.0207,196.8618ZM1363.1928,864.0009c172.1156,0,310.2875-136.1213,310.2875-324.0059s-138.1719-323.9959-310.2875-323.9959c-223.5442,0-265.7123,197.8249-402.1633,197.8249-138.5201,0-180.6881-197.8249-402.1717-197.8249-174.1763,0-310.6307,136.1112-310.6307,323.9959s136.4544,324.0059,310.6307,324.0059c221.4835,0,263.6516-197.8332,402.1717-197.8332,136.451,0,178.6191,197.8332,402.1633,197.8332ZM1362.3354,856.9723c167.773,0,303.1448-132.9783,303.1448-316.9774s-135.3719-316.9673-303.1448-316.9673c-221.2584,0-262.9119,198.7961-401.3059,198.7961-140.4631,0-182.1166-198.7961-401.3146-198.7961-169.8334,0-303.4308,132.9683-303.4308,316.9673s133.5974,316.9774,303.4308,316.9774c219.1979,0,260.8515-198.8047,401.3146-198.8047,138.394,0,180.0476,198.8047,401.3059,198.8047ZM1361.4781,849.9438c163.4303,0,296.0022-129.8354,296.0022-309.9488s-132.5718-309.9388-296.0022-309.9388c-218.9725,0-260.1116,199.7673-400.4486,199.7673-142.406,0-183.5451-199.7673-400.4575-199.7673-165.4905,0-296.2309,129.8253-296.2309,309.9388s130.7405,309.9488,296.2309,309.9488c216.9124,0,258.0515-199.7762,400.4575-199.7762,140.3369,0,181.476,199.7762,400.4486,199.7762ZM1360.6207,842.9152c159.0877,0,288.8595-126.6925,288.8595-302.9202s-129.7718-302.9102-288.8595-302.9102c-216.6867,0-257.3113,200.7385-399.5912,200.7385-144.349,0-184.9736-200.7385-399.6004-200.7385-161.1476,0-289.0311,126.6824-289.0311,302.9102s127.8835,302.9202,289.0311,302.9202c214.6268,0,255.2514-200.7477,399.6004-200.7477,142.2799,0,182.9045,200.7477,399.5912,200.7477ZM1359.7633,835.8866c154.7451,0,281.7168-123.5495,281.7168-295.8917s-126.9717-295.8816-281.7168-295.8816c-214.4008,0-254.511,201.7097-398.7338,201.7097-146.2919,0-186.4021-201.7097-398.7433-201.7097-156.8046,0-281.8312,123.5395-281.8312,295.8816s125.0266,295.8917,281.8312,295.8917c212.3412,0,252.4514-201.7192,398.7433-201.7192,144.2229,0,184.333,201.7192,398.7338,201.7192ZM1358.906,828.8581c150.4024,0,274.5741-120.4066,274.5741-288.8631s-124.1717-288.8531-274.5741-288.8531c-212.115,0-251.7106,202.6809-397.8765,202.6809-148.2349,0-187.8305-202.6809-397.8862-202.6809-152.4617,0-274.6313,120.3965-274.6313,288.8531s122.1696,288.8631,274.6313,288.8631c210.0557,0,249.6513-202.6906,397.8862-202.6906,146.1658,0,185.7615,202.6906,397.8765,202.6906ZM961.0295,618.1674c148.1088,0,187.19,203.6621,397.0191,203.6621,146.0598,0,267.4314-117.2637,267.4314-281.8345s-121.3717-281.8245-267.4314-281.8245c-209.8291,0-248.9103,203.6521-397.0191,203.6521-150.1778,0-189.259-203.6521-397.0291-203.6521-148.1188,0-267.4314,117.2536-267.4314,281.8245s119.3126,281.8345,267.4314,281.8345c207.7701,0,246.8513-203.6621,397.0291-203.6621Z"/></svg>